<?xml version="1.0" encoding="UTF-8"?>
<svg id="Capa_2" data-name="Capa 2" xmlns="http://www.w3.org/2000/svg" viewBox="0 0 538.45 105.44">
  <defs>
    <style>
      .cls-1 {
        fill: #076e81;
      }
    </style>
  </defs>
  <g id="Capa_1-2" data-name="Capa 1">
    <g>
      <path class="cls-1" d="M160.69,13.14h14.6l30.18,78.36h-14.71l-7.35-20.74h-31.28l-7.35,20.74h-14.16l30.07-78.36ZM155.86,60.33h23.93l-11.74-33.69h-.33l-11.85,33.69Z"/>
      <path class="cls-1" d="M211.51,13.14h12.51v11.85h-12.51v-11.85ZM211.51,34.76h12.51v56.74h-12.51v-56.74Z"/>
      <path class="cls-1" d="M237.63,34.76h11.85v7.9h.33c.95-1.39,1.98-2.67,3.07-3.84,1.1-1.17,2.32-2.16,3.68-2.96,1.35-.8,2.91-1.44,4.66-1.92,1.76-.48,3.77-.71,6.04-.71,3.44,0,6.64.77,9.6,2.3,2.96,1.54,5.07,3.91,6.31,7.13,2.12-2.93,4.57-5.23,7.35-6.91,2.78-1.68,6.26-2.52,10.43-2.52,6,0,10.66,1.46,13.99,4.39,3.33,2.93,4.99,7.83,4.99,14.71v39.18h-12.51v-33.14c0-2.27-.07-4.34-.22-6.2-.15-1.87-.57-3.47-1.26-4.83-.7-1.35-1.74-2.4-3.13-3.13-1.39-.73-3.29-1.1-5.71-1.1-4.24,0-7.32,1.32-9.22,3.95-1.9,2.63-2.85,6.37-2.85,11.19v33.25h-12.51v-36.44c0-3.95-.71-6.93-2.14-8.94-1.43-2.01-4.04-3.02-7.85-3.02-1.61,0-3.17.33-4.66.99-1.5.66-2.82,1.61-3.95,2.85-1.14,1.24-2.05,2.78-2.74,4.61-.7,1.83-1.04,3.91-1.04,6.26v33.69h-12.51v-56.74Z"/>
      <path class="cls-1" d="M342.88,66.36c0,2.19.31,4.32.93,6.37.62,2.05,1.55,3.84,2.8,5.38,1.24,1.54,2.82,2.76,4.72,3.68,1.9.92,4.17,1.37,6.8,1.37,3.66,0,6.6-.79,8.84-2.36,2.23-1.57,3.9-3.93,4.99-7.08h11.85c-.66,3.07-1.79,5.82-3.4,8.23-1.61,2.41-3.55,4.44-5.82,6.09-2.27,1.65-4.81,2.89-7.63,3.73-2.82.84-5.76,1.26-8.84,1.26-4.46,0-8.41-.73-11.85-2.19-3.44-1.46-6.35-3.51-8.73-6.15-2.38-2.63-4.17-5.78-5.38-9.44-1.21-3.66-1.81-7.68-1.81-12.07,0-4.02.64-7.85,1.92-11.47,1.28-3.62,3.11-6.8,5.49-9.55,2.38-2.74,5.25-4.92,8.62-6.53,3.36-1.61,7.17-2.41,11.41-2.41,4.46,0,8.47.93,12.02,2.8,3.55,1.87,6.49,4.34,8.83,7.41,2.34,3.07,4.04,6.6,5.1,10.59,1.06,3.99,1.33,8.1.82,12.35h-41.71ZM372.07,58.13c-.15-1.98-.57-3.88-1.26-5.71-.7-1.83-1.65-3.42-2.85-4.77-1.21-1.35-2.67-2.45-4.39-3.29-1.72-.84-3.64-1.26-5.76-1.26s-4.19.38-5.98,1.15c-1.79.77-3.33,1.83-4.61,3.18-1.28,1.35-2.3,2.95-3.07,4.77-.77,1.83-1.19,3.81-1.26,5.93h29.19Z"/>
      <path class="cls-1" d="M447.58,91.5h-11.85v-7.68h-.22c-1.68,3.29-4.13,5.65-7.35,7.08-3.22,1.43-6.62,2.14-10.21,2.14-4.46,0-8.36-.79-11.69-2.36-3.33-1.57-6.09-3.71-8.29-6.42-2.2-2.71-3.84-5.91-4.94-9.6-1.1-3.69-1.65-7.66-1.65-11.91,0-5.12.69-9.55,2.09-13.28,1.39-3.73,3.24-6.8,5.54-9.22,2.3-2.41,4.94-4.19,7.9-5.32,2.96-1.13,5.98-1.7,9.05-1.7,1.76,0,3.55.16,5.38.49,1.83.33,3.58.86,5.27,1.59,1.68.73,3.24,1.67,4.66,2.8,1.43,1.14,2.62,2.47,3.57,4.01h.22V13.14h12.51v78.36ZM403.9,63.73c0,2.41.31,4.79.93,7.13.62,2.34,1.57,4.43,2.85,6.26,1.28,1.83,2.91,3.29,4.88,4.39,1.98,1.1,4.32,1.65,7.02,1.65s5.18-.58,7.19-1.76c2.01-1.17,3.66-2.71,4.94-4.61,1.28-1.9,2.23-4.04,2.85-6.42.62-2.38.93-4.81.93-7.3,0-6.29-1.41-11.19-4.23-14.71-2.82-3.51-6.64-5.27-11.47-5.27-2.93,0-5.4.6-7.41,1.81-2.01,1.21-3.66,2.78-4.94,4.72-1.28,1.94-2.19,4.13-2.74,6.58-.55,2.45-.82,4.96-.82,7.52Z"/>
      <path class="cls-1" d="M461.52,13.14h12.51v11.85h-12.51v-11.85ZM461.52,34.76h12.51v56.74h-12.51v-56.74Z"/>
      <path class="cls-1" d="M525.94,53.74c-.51-3.51-1.92-6.16-4.23-7.96-2.3-1.79-5.21-2.69-8.73-2.69-1.61,0-3.33.27-5.16.82-1.83.55-3.51,1.57-5.05,3.07-1.54,1.5-2.82,3.59-3.84,6.26-1.03,2.67-1.54,6.16-1.54,10.48,0,2.34.27,4.68.82,7.02.55,2.34,1.43,4.43,2.63,6.26,1.21,1.83,2.76,3.31,4.66,4.44,1.9,1.14,4.21,1.7,6.91,1.7,3.66,0,6.68-1.13,9.05-3.4,2.38-2.27,3.86-5.45,4.44-9.55h12.51c-1.17,7.39-3.97,13.04-8.4,16.96-4.43,3.91-10.3,5.87-17.62,5.87-4.46,0-8.4-.75-11.8-2.25-3.4-1.5-6.27-3.55-8.62-6.15-2.34-2.6-4.12-5.69-5.32-9.27-1.21-3.58-1.81-7.46-1.81-11.63s.58-8.23,1.76-11.96c1.17-3.73,2.93-6.97,5.27-9.71,2.34-2.74,5.25-4.9,8.73-6.48,3.47-1.57,7.55-2.36,12.24-2.36,3.29,0,6.42.42,9.38,1.26,2.96.84,5.6,2.1,7.9,3.79,2.3,1.68,4.19,3.81,5.65,6.37,1.46,2.56,2.34,5.6,2.63,9.11h-12.51Z"/>
      <path class="cls-1" d="M103.37,16.75l-14.83-14.83c-1.24-1.24-2.92-1.92-4.65-1.92H21.4c-1.73,0-3.41.68-4.65,1.92L1.92,16.75c-1.24,1.24-1.92,2.92-1.92,4.65v5.21c0,1.73.68,3.41,1.92,4.65l14.83,14.83c1.24,1.24,2.92,1.92,4.65,1.92h62.49c1.73,0,3.41-.68,4.65-1.92l14.83-14.83c1.24-1.24,1.92-2.92,1.92-4.65v-5.21c0-1.73-.68-3.41-1.92-4.65ZM95.37,31.51c0,3.63-2.94,6.57-6.57,6.57H16.49c-3.63,0-6.57-2.94-6.57-6.57v-15.02c0-3.63,2.94-6.57,6.57-6.57h72.3c3.63,0,6.57,2.94,6.57,6.57v15.02Z"/>
      <path class="cls-1" d="M103.37,16.75l-14.83-14.83c-1.24-1.24-2.92-1.92-4.65-1.92H21.4c-1.73,0-3.41.68-4.65,1.92L1.92,16.75c-1.24,1.24-1.92,2.92-1.92,4.65v5.21c0,1.73.68,3.41,1.92,4.65l14.83,14.83c1.24,1.24,2.92,1.92,4.65,1.92h62.49c1.73,0,3.41-.68,4.65-1.92l14.83-14.83c1.24-1.24,1.92-2.92,1.92-4.65v-5.21c0-1.73-.68-3.41-1.92-4.65ZM95.37,31.51c0,3.63-2.94,6.57-6.57,6.57H16.49c-3.63,0-6.57-2.94-6.57-6.57v-15.02c0-3.63,2.94-6.57,6.57-6.57h72.3c3.63,0,6.57,2.94,6.57,6.57v15.02Z"/>
      <path class="cls-1" d="M103.37,74.19l-14.83-14.83c-1.24-1.24-2.92-1.92-4.65-1.92H21.4c-1.73,0-3.41.68-4.65,1.92l-14.83,14.83c-1.24,1.24-1.92,2.92-1.92,4.65v5.21c0,1.73.68,3.41,1.92,4.65l14.83,14.83c1.24,1.24,2.92,1.92,4.65,1.92h62.49c1.73,0,3.41-.68,4.65-1.92l14.83-14.83c1.24-1.24,1.92-2.92,1.92-4.65v-5.21c0-1.73-.68-3.41-1.92-4.65ZM95.37,88.95c0,3.63-2.94,6.57-6.57,6.57H16.49c-3.63,0-6.57-2.94-6.57-6.57v-15.02c0-3.63,2.94-6.57,6.57-6.57h72.3c3.63,0,6.57,2.94,6.57,6.57v15.02Z"/>
    </g>
  </g>
</svg>