<?xml version="1.0" encoding="UTF-8" standalone="no"?>
<!-- Created with Inkscape (http://www.inkscape.org/) -->

<svg
   width="390mm"
   height="60mm"
   viewBox="0 0 390 60"
   version="1.1"
   id="svg1"
   inkscape:version="1.4 (86a8ad7, 2024-10-11)"
   sodipodi:docname="aimedic-logo-blanco.svg"
   xmlns:inkscape="http://www.inkscape.org/namespaces/inkscape"
   xmlns:sodipodi="http://sodipodi.sourceforge.net/DTD/sodipodi-0.dtd"
   xmlns="http://www.w3.org/2000/svg"
   xmlns:svg="http://www.w3.org/2000/svg">
  <sodipodi:namedview
     id="namedview1"
     pagecolor="#ffffff"
     bordercolor="#000000"
     borderopacity="0.25"
     inkscape:showpageshadow="2"
     inkscape:pageopacity="0.0"
     inkscape:pagecheckerboard="0"
     inkscape:deskcolor="#d1d1d1"
     inkscape:document-units="mm"
     inkscape:zoom="0.41881624"
     inkscape:cx="664.96944"
     inkscape:cy="476.34256"
     inkscape:window-width="1366"
     inkscape:window-height="697"
     inkscape:window-x="261"
     inkscape:window-y="1072"
     inkscape:window-maximized="1"
     inkscape:current-layer="g2"
     showguides="true" />
  <defs
     id="defs1">
    <rect
       x="350.2222"
       y="366.01089"
       width="581.3114"
       height="216.73587"
       id="rect3" />
    <filter
       style="color-interpolation-filters:sRGB"
       inkscape:label="Drop Shadow"
       id="filter105"
       x="-0.060000005"
       y="-0.96"
       width="1.145"
       height="3.32">
      <feFlood
         result="flood"
         in="SourceGraphic"
         flood-opacity="0.498039"
         flood-color="rgb(0,0,0)"
         id="feFlood104" />
      <feGaussianBlur
         result="blur"
         in="SourceGraphic"
         stdDeviation="1.000000"
         id="feGaussianBlur104" />
      <feOffset
         result="offset"
         in="blur"
         dx="1.000000"
         dy="1.000000"
         id="feOffset104" />
      <feComposite
         result="comp1"
         operator="in"
         in="flood"
         in2="offset"
         id="feComposite104" />
      <feComposite
         result="comp2"
         operator="over"
         in="SourceGraphic"
         in2="comp1"
         id="feComposite105" />
    </filter>
    <filter
       style="color-interpolation-filters:sRGB"
       inkscape:label="Drop Shadow"
       id="filter107"
       x="-0.12"
       y="-0.96"
       width="1.29"
       height="3.32">
      <feFlood
         result="flood"
         in="SourceGraphic"
         flood-opacity="0.498039"
         flood-color="rgb(0,0,0)"
         id="feFlood105" />
      <feGaussianBlur
         result="blur"
         in="SourceGraphic"
         stdDeviation="1.000000"
         id="feGaussianBlur105" />
      <feOffset
         result="offset"
         in="blur"
         dx="1.000000"
         dy="1.000000"
         id="feOffset105" />
      <feComposite
         result="comp1"
         operator="in"
         in="flood"
         in2="offset"
         id="feComposite106" />
      <feComposite
         result="comp2"
         operator="over"
         in="SourceGraphic"
         in2="comp1"
         id="feComposite107" />
    </filter>
    <filter
       style="color-interpolation-filters:sRGB"
       inkscape:label="Drop Shadow"
       id="filter109"
       x="-0.070588235"
       y="-0.96"
       width="1.1705882"
       height="3.32">
      <feFlood
         result="flood"
         in="SourceGraphic"
         flood-opacity="0.498039"
         flood-color="rgb(0,0,0)"
         id="feFlood107" />
      <feGaussianBlur
         result="blur"
         in="SourceGraphic"
         stdDeviation="1.000000"
         id="feGaussianBlur107" />
      <feOffset
         result="offset"
         in="blur"
         dx="1.000000"
         dy="1.000000"
         id="feOffset107" />
      <feComposite
         result="comp1"
         operator="in"
         in="flood"
         in2="offset"
         id="feComposite108" />
      <feComposite
         result="comp2"
         operator="over"
         in="SourceGraphic"
         in2="comp1"
         id="feComposite109" />
    </filter>
    <filter
       style="color-interpolation-filters:sRGB"
       inkscape:label="Drop Shadow"
       id="filter111"
       x="-0.17142857"
       y="-0.17142857"
       width="1.4142857"
       height="1.4142857">
      <feFlood
         result="flood"
         in="SourceGraphic"
         flood-opacity="0.498039"
         flood-color="rgb(0,0,0)"
         id="feFlood109" />
      <feGaussianBlur
         result="blur"
         in="SourceGraphic"
         stdDeviation="1.000000"
         id="feGaussianBlur109" />
      <feOffset
         result="offset"
         in="blur"
         dx="1.000000"
         dy="1.000000"
         id="feOffset109" />
      <feComposite
         result="comp1"
         operator="in"
         in="flood"
         in2="offset"
         id="feComposite110" />
      <feComposite
         result="comp2"
         operator="over"
         in="SourceGraphic"
         in2="comp1"
         id="feComposite111" />
    </filter>
    <filter
       style="color-interpolation-filters:sRGB"
       inkscape:label="Drop Shadow"
       id="filter113"
       x="-0.17142857"
       y="-0.17142858"
       width="1.4142857"
       height="1.4142857">
      <feFlood
         result="flood"
         in="SourceGraphic"
         flood-opacity="0.498039"
         flood-color="rgb(0,0,0)"
         id="feFlood111" />
      <feGaussianBlur
         result="blur"
         in="SourceGraphic"
         stdDeviation="1.000000"
         id="feGaussianBlur111" />
      <feOffset
         result="offset"
         in="blur"
         dx="1.000000"
         dy="1.000000"
         id="feOffset111" />
      <feComposite
         result="comp1"
         operator="in"
         in="flood"
         in2="offset"
         id="feComposite112" />
      <feComposite
         result="comp2"
         operator="over"
         in="SourceGraphic"
         in2="comp1"
         id="feComposite113" />
    </filter>
    <filter
       style="color-interpolation-filters:sRGB"
       inkscape:label="Drop Shadow"
       id="filter115"
       x="-0.17142857"
       y="-0.17142857"
       width="1.4142857"
       height="1.4142857">
      <feFlood
         result="flood"
         in="SourceGraphic"
         flood-opacity="0.498039"
         flood-color="rgb(0,0,0)"
         id="feFlood113" />
      <feGaussianBlur
         result="blur"
         in="SourceGraphic"
         stdDeviation="1.000000"
         id="feGaussianBlur113" />
      <feOffset
         result="offset"
         in="blur"
         dx="1.000000"
         dy="1.000000"
         id="feOffset113" />
      <feComposite
         result="comp1"
         operator="in"
         in="flood"
         in2="offset"
         id="feComposite114" />
      <feComposite
         result="comp2"
         operator="over"
         in="SourceGraphic"
         in2="comp1"
         id="feComposite115" />
    </filter>
    <filter
       style="color-interpolation-filters:sRGB"
       inkscape:label="Drop Shadow"
       id="filter117"
       x="-0.17142857"
       y="-0.17142857"
       width="1.4142857"
       height="1.4142857">
      <feFlood
         result="flood"
         in="SourceGraphic"
         flood-opacity="0.498039"
         flood-color="rgb(0,0,0)"
         id="feFlood115" />
      <feGaussianBlur
         result="blur"
         in="SourceGraphic"
         stdDeviation="1.000000"
         id="feGaussianBlur115" />
      <feOffset
         result="offset"
         in="blur"
         dx="1.000000"
         dy="1.000000"
         id="feOffset115" />
      <feComposite
         result="comp1"
         operator="in"
         in="flood"
         in2="offset"
         id="feComposite116" />
      <feComposite
         result="comp2"
         operator="over"
         in="SourceGraphic"
         in2="comp1"
         id="feComposite117" />
    </filter>
    <filter
       style="color-interpolation-filters:sRGB"
       inkscape:label="Drop Shadow"
       id="filter119"
       x="-0.17142857"
       y="-0.17142857"
       width="1.4142857"
       height="1.4142857">
      <feFlood
         result="flood"
         in="SourceGraphic"
         flood-opacity="0.498039"
         flood-color="rgb(0,0,0)"
         id="feFlood117" />
      <feGaussianBlur
         result="blur"
         in="SourceGraphic"
         stdDeviation="1.000000"
         id="feGaussianBlur117" />
      <feOffset
         result="offset"
         in="blur"
         dx="1.000000"
         dy="1.000000"
         id="feOffset117" />
      <feComposite
         result="comp1"
         operator="in"
         in="flood"
         in2="offset"
         id="feComposite118" />
      <feComposite
         result="comp2"
         operator="over"
         in="SourceGraphic"
         in2="comp1"
         id="feComposite119" />
    </filter>
    <filter
       style="color-interpolation-filters:sRGB"
       inkscape:label="Drop Shadow"
       id="filter121"
       x="-0.17142857"
       y="-0.17142857"
       width="1.4142857"
       height="1.4142857">
      <feFlood
         result="flood"
         in="SourceGraphic"
         flood-opacity="0.498039"
         flood-color="rgb(0,0,0)"
         id="feFlood119" />
      <feGaussianBlur
         result="blur"
         in="SourceGraphic"
         stdDeviation="1.000000"
         id="feGaussianBlur119" />
      <feOffset
         result="offset"
         in="blur"
         dx="1.000000"
         dy="1.000000"
         id="feOffset119" />
      <feComposite
         result="comp1"
         operator="in"
         in="flood"
         in2="offset"
         id="feComposite120" />
      <feComposite
         result="comp2"
         operator="over"
         in="SourceGraphic"
         in2="comp1"
         id="feComposite121" />
    </filter>
    <filter
       style="color-interpolation-filters:sRGB"
       inkscape:label="Drop Shadow"
       id="filter123"
       x="-0.17142857"
       y="-0.17142857"
       width="1.4142857"
       height="1.4142857">
      <feFlood
         result="flood"
         in="SourceGraphic"
         flood-opacity="0.498039"
         flood-color="rgb(0,0,0)"
         id="feFlood121" />
      <feGaussianBlur
         result="blur"
         in="SourceGraphic"
         stdDeviation="1.000000"
         id="feGaussianBlur121" />
      <feOffset
         result="offset"
         in="blur"
         dx="1.000000"
         dy="1.000000"
         id="feOffset121" />
      <feComposite
         result="comp1"
         operator="in"
         in="flood"
         in2="offset"
         id="feComposite122" />
      <feComposite
         result="comp2"
         operator="over"
         in="SourceGraphic"
         in2="comp1"
         id="feComposite123" />
    </filter>
    <filter
       style="color-interpolation-filters:sRGB"
       inkscape:label="Drop Shadow"
       id="filter125"
       x="-1.0434783"
       y="-0.043753408"
       width="3.5217391"
       height="1.1057374">
      <feFlood
         result="flood"
         in="SourceGraphic"
         flood-opacity="0.498039"
         flood-color="rgb(0,0,0)"
         id="feFlood123" />
      <feGaussianBlur
         result="blur"
         in="SourceGraphic"
         stdDeviation="1.000000"
         id="feGaussianBlur123" />
      <feOffset
         result="offset"
         in="blur"
         dx="1.000000"
         dy="1.000000"
         id="feOffset123" />
      <feComposite
         result="comp1"
         operator="in"
         in="flood"
         in2="offset"
         id="feComposite124" />
      <feComposite
         result="comp2"
         operator="over"
         in="SourceGraphic"
         in2="comp1"
         id="feComposite125" />
    </filter>
  </defs>
  <g
     inkscape:label="Layer 1"
     inkscape:groupmode="layer"
     id="layer1">
    <g
       id="g3"
       transform="translate(-28.14262,-115.25073)">
      <path
         id="rect2"
         style="fill:#f0f0eb;fill-opacity:0.984314;fill-rule:evenodd;stroke-width:0.271918;filter:url(#filter109)"
         transform="matrix(0.93802637,0.05369939,-0.04915988,1.0246454,19.819074,16.668465)"
         d="m 30.92767,107.58238 h 34 v 2.5 h -34 z" />
      <path
         id="rect2-9"
         style="fill:#f0f0eb;fill-opacity:0.984314;fill-rule:evenodd;stroke-width:0.208552;filter:url(#filter107)"
         transform="rotate(-117,14.418855,4.613703)"
         d="m -143.21544,-5.4993577 h 20 v 2.5 h -20 z" />
      <path
         id="rect2-5"
         style="fill:#f0f0eb;fill-opacity:0.984314;fill-rule:evenodd;stroke-width:0.294937;filter:url(#filter105)"
         transform="rotate(-57,26.435463,-5.7428513)"
         d="m -105.28777,103.33302 h 39.999997 v 2.5 h -39.999997 z" />
      <g
         id="g1"
         transform="rotate(3,-364.9716,331.59267)"
         style="fill:#f0f0eb;fill-opacity:0.984314" />
      <path
         style="font-weight:300;font-size:61.7361px;font-family:Wonder;-inkscape-font-specification:'Wonder Light';fill:#f0f0eb;fill-opacity:0.984314;stroke-width:0.264583"
         d="m 150.02535,168.36215 c -1.41993,-1.04952 -2.16077,-2.16077 -3.33375,-5.06237 l -12.16201,-30.80631 c -1.17299,-3.02507 -1.91382,-3.58069 -5.06236,-3.58069 -3.14855,0 -4.25979,0.55562 -5.37104,3.45722 l -12.22375,30.80631 c -1.23472,3.14854 -1.91382,4.07459 -3.39549,5.1241 l -0.74083,0.55562 c -0.74083,0.49389 -1.11125,0.92605 -1.11125,2.0373 0,1.35819 0.43215,1.91381 1.5434,1.91381 h 11.66812 c 1.17299,0 1.66688,-0.55562 1.66688,-1.91381 0,-1.11125 -0.37042,-1.72862 -1.11125,-1.97556 l -1.48167,-0.55562 c -2.16076,-0.80257 -2.53118,-2.28424 -1.72861,-4.38327 l 1.97556,-5.00062 h 19.3234 l 1.85208,5.00062 c 0.80257,2.09903 0.49389,3.51896 -1.60514,4.38327 l -1.48167,0.49388 c -0.74083,0.30868 -1.11125,0.92605 -1.11125,2.0373 0,1.35819 0.43216,1.91381 1.60514,1.91381 h 12.59417 c 1.17298,0 1.60514,-0.55562 1.60514,-1.91381 0,-1.11125 -0.37042,-1.54341 -1.11125,-2.0373 z m -20.99028,-34.69569 7.59354,20.37291 h -15.55749 z m 44.20308,39.14068 c 1.11125,0 1.60513,-0.49388 1.60513,-1.79034 0,-1.17299 -0.37041,-1.79035 -1.17298,-2.09903 l -1.79035,-0.74083 c -1.60514,-0.6791 -2.46944,-1.60514 -2.46944,-4.13632 V 138.3584 c 0,-2.53118 0.8643,-3.51896 2.46944,-4.13632 l 1.79035,-0.74083 c 0.80257,-0.30868 1.17298,-0.92604 1.17298,-2.09903 0,-1.29646 -0.49388,-1.79035 -1.60513,-1.79035 h -13.89063 c -1.11125,0 -1.60514,0.49389 -1.60514,1.79035 0,1.17299 0.37042,1.79035 1.17299,2.09903 l 1.79035,0.74083 c 1.60514,0.61736 2.46944,1.60514 2.46944,4.13632 v 25.68222 c 0,2.53118 -0.8643,3.45722 -2.46944,4.13632 l -1.79035,0.74083 c -0.80257,0.30868 -1.17299,0.92604 -1.17299,2.09903 0,1.29646 0.49389,1.79034 1.60514,1.79034 z m 63.40303,-4.6302 c -1.60514,-0.6791 -2.46945,-1.60514 -2.46945,-4.13632 V 138.3584 c 0,-2.53118 0.86431,-3.51896 2.46945,-4.13632 l 1.79035,-0.74083 c 0.80256,-0.30868 1.17298,-0.92604 1.17298,-2.09903 0,-1.29646 -0.49389,-1.79035 -1.60514,-1.79035 l -9.19868,0.0617 c -2.90159,0 -4.19805,0.80257 -5.3093,3.58069 l -11.9768,29.01597 -12.22375,-29.50985 c -0.86431,-2.16077 -1.91382,-3.14855 -4.445,-3.14855 h -9.87778 c -1.11125,0 -1.60513,0.49389 -1.60513,1.79035 0,1.17299 0.37041,1.79035 1.17298,2.09903 l 1.79035,0.74083 c 1.60514,0.61736 2.46944,1.60514 2.46944,4.13632 v 25.68222 c 0,2.53118 -0.8643,3.45722 -2.46944,4.13632 l -1.79035,0.74083 c -0.80257,0.30868 -1.17298,0.92604 -1.17298,2.09903 0,1.29646 0.49388,1.79034 1.60513,1.79034 h 12.84111 c 1.11125,0 1.60514,-0.49388 1.60514,-1.79034 0,-1.17299 -0.37042,-1.79035 -1.11125,-2.09903 l -1.85208,-0.74083 c -1.5434,-0.61736 -2.40771,-1.66688 -2.40771,-4.13632 v -27.47257 l 12.90284,30.74458 c 0.74084,1.85208 1.3582,2.40771 3.95112,2.40771 2.65465,0 3.39548,-0.55563 4.13631,-2.34597 l 12.90285,-30.68284 v 27.34909 c 0,2.53118 -0.86431,3.51896 -2.40771,4.13632 l -1.79035,0.74083 c -0.80257,0.30868 -1.17298,0.92604 -1.17298,2.09903 0,1.29646 0.49389,1.79034 1.66687,1.79034 h 13.76715 c 1.11125,0 1.60514,-0.49388 1.60514,-1.79034 0,-1.17299 -0.37042,-1.79035 -1.17298,-2.09903 z m 47.41331,-11.35945 c -1.97556,-0.49388 -2.71639,0 -3.21028,1.29646 l -2.83986,9.44563 H 259.7922 v -14.13757 h 13.45847 c 1.66688,0 2.2225,-0.61736 2.2225,-2.53118 0,-1.97556 -0.55562,-2.71639 -2.2225,-2.71639 H 259.7922 v -13.335 h 18.08868 l 2.65465,9.01347 c 0.61736,1.72861 1.29646,2.2225 3.33375,1.72861 1.72861,-0.43215 2.09903,-1.11125 1.91382,-2.71638 l -1.29646,-10.80382 c -0.18521,-1.72861 -1.04951,-2.46945 -3.02507,-2.46945 h -31.73235 c -1.11125,0 -1.60514,0.49389 -1.60514,1.79035 0,1.17299 0.37042,1.79035 1.17299,2.09903 l 1.79034,0.74083 c 1.60514,0.61736 2.46945,1.60514 2.46945,4.13632 v 25.68222 c 0,2.53118 -0.86431,3.45722 -2.46945,4.13632 l -1.79034,0.74083 c -0.80257,0.30868 -1.17299,0.92604 -1.17299,2.09903 0,1.29646 0.49389,1.79034 1.60514,1.79034 h 31.85582 c 1.97556,0 2.83987,-0.74083 3.08681,-2.46944 l 1.17299,-10.12472 c 0.24694,-2.03729 0.24694,-2.9016 -1.79035,-3.39549 z m 12.0385,-27.22562 c -1.11125,0 -1.60514,0.49389 -1.60514,1.79035 0,1.17299 0.37042,1.79035 1.17298,2.09903 l 1.79035,0.74083 c 1.60514,0.61736 2.46945,1.60514 2.46945,4.13632 v 25.68222 c 0,2.53118 -0.86431,3.45722 -2.46945,4.13632 l -1.79035,0.74083 c -0.80256,0.30868 -1.17298,0.92604 -1.17298,2.09903 0,1.29646 0.49389,1.79034 1.60514,1.79034 h 17.28611 c 14.75492,0 24.26228,-7.96395 24.26228,-23.02756 0,-10.12472 -6.79097,-20.18771 -22.22499,-20.18771 z m 10.06298,37.96771 v -32.72014 h 7.84049 c 10.00124,0 16.48353,5.06236 16.48353,15.86618 0,10.30993 -6.17361,16.85396 -17.16263,16.85396 z m 55.43904,5.24756 c 1.11125,0 1.60514,-0.49388 1.60514,-1.79034 0,-1.17299 -0.37041,-1.79035 -1.17298,-2.09903 l -1.79035,-0.74083 c -1.60514,-0.6791 -2.46944,-1.60514 -2.46944,-4.13632 V 138.3584 c 0,-2.53118 0.8643,-3.51896 2.46944,-4.13632 l 1.79035,-0.74083 c 0.80257,-0.30868 1.17298,-0.92604 1.17298,-2.09903 0,-1.29646 -0.49389,-1.79035 -1.60514,-1.79035 h -13.89062 c -1.11125,0 -1.60514,0.49389 -1.60514,1.79035 0,1.17299 0.37042,1.79035 1.17299,2.09903 l 1.79035,0.74083 c 1.60513,0.61736 2.46944,1.60514 2.46944,4.13632 v 25.68222 c 0,2.53118 -0.86431,3.45722 -2.46944,4.13632 l -1.79035,0.74083 c -0.80257,0.30868 -1.17299,0.92604 -1.17299,2.09903 0,1.29646 0.49389,1.79034 1.60514,1.79034 z m 50.74714,-15.49576 c -1.48167,-0.61736 -2.59292,-0.37041 -3.27201,1.17299 -2.77813,6.60576 -8.76653,9.81604 -15.06361,9.81604 -8.08743,0 -15.43403,-5.18583 -15.43403,-17.28611 0,-8.82826 5.18584,-16.97743 14.19931,-16.97743 5.9884,0 10.37166,2.65466 15.18708,11.17424 0.67909,1.17298 1.72861,1.29646 3.0868,0.61736 1.29646,-0.61736 1.60514,-1.23472 1.3582,-2.59292 l -2.03729,-11.85333 c -0.30868,-1.5434 -0.6791,-1.97555 -2.59292,-1.97555 -0.98778,0 -2.09903,0.55562 -2.34597,2.03729 l -0.30868,2.90159 c -2.83986,-3.27201 -6.97618,-5.74145 -12.34722,-5.74145 -12.22375,0 -21.11375,9.81604 -21.11375,23.45971 0,11.72986 7.71701,21.73111 20.92854,21.73111 10.92729,0 17.71826,-5.49451 20.68159,-12.77937 0.6791,-1.5434 0.6791,-2.96333 -0.92604,-3.70417 z"
         id="text4"
         aria-label="AIMEDIC" />
      <path
         id="rect1"
         style="fill:#f0f0eb;fill-opacity:0.984314;fill-rule:evenodd;stroke-width:0.220691;filter:url(#filter125)"
         d="m 94.550606,119.58792 c 0.689579,-0.79544 1.420225,-1.16714 2.3,0 v 32.61965 21.12809 c -0.842579,0.54141 -1.592512,0.42206 -2.3,0 z"
         sodipodi:nodetypes="cccccc" />
      <path
         id="path2-8-5-2"
         style="fill:#f0f0eb;fill-opacity:0.984314;fill-rule:evenodd;stroke-width:0.287436;filter:url(#filter113)"
         transform="rotate(62.999993,-7.528881,23.529434)"
         d="m 129.91232,4.0743685 a 7,7 0 0 1 -7,6.9999995 7,7 0 0 1 -7,-6.9999995 7,7 0 0 1 7,-7 7,7 0 0 1 7,7 z" />
      <path
         id="path2-8-5-2-1"
         style="fill:#f0f0eb;fill-opacity:0.984314;fill-rule:evenodd;stroke-width:0.287436;filter:url(#filter111)"
         transform="rotate(62.999993,-7.528881,23.529434)"
         d="m 139.91232,21.39488 a 7,7 0 0 1 -7,7 7,7 0 0 1 -7,-7 7,7 0 0 1 7,-7 7,7 0 0 1 7,7 z" />
      <path
         id="path2-8-5-1"
         style="fill:#f0f0eb;fill-opacity:0.984314;fill-rule:evenodd;stroke-width:0.287436;filter:url(#filter117)"
         transform="rotate(62.999997,-7.52888,23.529434)"
         d="m 159.91232,21.394876 a 7,7 0 0 1 -7,7 7,7 0 0 1 -7,-7 7,7 0 0 1 7,-7 7,7 0 0 1 7,7 z" />
      <path
         id="path2-8-5-7"
         style="fill:#f0f0eb;fill-opacity:0.984314;fill-rule:evenodd;stroke-width:0.287437;filter:url(#filter115)"
         transform="rotate(63.000003,-7.5288777,23.529432)"
         d="m 149.91232,4.0743456 a 7,7 0 0 1 -7,7.0000004 7,7 0 0 1 -7,-7.0000004 7,7 0 0 1 7,-7 7,7 0 0 1 7,7 z" />
      <path
         id="path2-8-5"
         style="fill:#f0f0eb;fill-opacity:0.984314;fill-rule:evenodd;stroke-width:0.287437;filter:url(#filter119)"
         transform="rotate(63.000003,-7.5288777,23.529432)"
         d="m 149.91234,38.715378 a 7,7 0 0 1 -7,7 7,7 0 0 1 -7,-7 7,7 0 0 1 7,-7 7,7 0 0 1 7,7 z" />
      <path
         id="path2"
         style="fill:#f0f0eb;fill-opacity:0.984314;fill-rule:evenodd;stroke-width:0.287436;filter:url(#filter123)"
         transform="rotate(63.000003,-7.5288775,23.529432)"
         d="m 119.91234,21.394861 a 7,7 0 0 1 -7,7 7,7 0 0 1 -7,-7 7,7 0 0 1 7,-7 7,7 0 0 1 7,7 z" />
      <path
         id="path2-8"
         style="fill:#f0f0eb;fill-opacity:0.984314;fill-rule:evenodd;stroke-width:0.287437;filter:url(#filter121)"
         transform="rotate(63,-7.5288789,23.529433)"
         d="m 129.91233,38.715374 a 7,7 0 0 1 -7,7 7,7 0 0 1 -7,-7 7,7 0 0 1 7,-7 7,7 0 0 1 7,7 z" />
      <g
         id="g2" />
    </g>
  </g>
</svg>
